<svg xmlns="http://www.w3.org/2000/svg" width="20" height="20" viewBox="0 0 20 20"><defs><style>.a{fill:#9da9ff;}.b{fill:#fff;}</style></defs><g transform="translate(231.615 -583.243)"><circle class="a" cx="10" cy="10" r="10" transform="translate(-231.615 583.243)"/><path class="b" d="M-224.6,593.9a.758.758,0,0,1-.535-.216l-1.917-1.84a.721.721,0,0,1-.025-1.02h0l.019-.019a.771.771,0,0,1,1.068-.007l1.379,1.326,3.368-3.32a.773.773,0,0,1,1.067-.007.719.719,0,0,1,.027,1.018h0l-.019.02-3.9,3.849a.755.755,0,0,1-.533.219" transform="translate(2 2)"/></g></svg>